<svg xmlns="http://www.w3.org/2000/svg" viewBox="0 0 2048 2048" width="32" height="32">
  <path fill="white" d="M1024 384v640h384v128H896V384h128zm1024 640q0 140-37 272t-105 248-167 213-221 163h274v128h-512v-512h128v297q117-55 211-140t162-190 103-228 36-251q0-123-32-237t-90-214-141-182-181-140-214-91-238-32q-123 0-237 32t-214 90-182 141-140 181-91 214-32 238q0 150 48 289t136 253 207 197 266 124l-34 123q-166-45-304-140t-237-226-155-289-55-331q0-141 36-272t103-245 160-207 208-160T751 37t273-37q141 0 272 36t245 103 207 160 160 208 103 245 37 272z" />
</svg>