<svg xmlns="http://www.w3.org/2000/svg" viewBox="-200 -200 2448 2448" width="32" height="32">
  <path fill="white" d="M256 896q27 0 50 10t40 27 28 41 10 50q0 27-10 50t-27 40-41 28-50 10q-27 0-50-10t-40-27-28-41-10-50q0-27 10-50t27-40 41-28 50-10zm768 0q27 0 50 10t40 27 28 41 10 50q0 27-10 50t-27 40-41 28-50 10q-27 0-50-10t-40-27-28-41-10-50q0-27 10-50t27-40 41-28 50-10zm768 0q27 0 50 10t40 27 28 41 10 50q0 27-10 50t-27 40-41 28-50 10q-27 0-50-10t-40-27-28-41-10-50q0-27 10-50t27-40 41-28 50-10z" />
</svg>