<?xml version="1.0" encoding="UTF-8" standalone="no" ?>
<!DOCTYPE svg PUBLIC "-//W3C//DTD SVG 1.1//EN" "http://www.w3.org/Graphics/SVG/1.1/DTD/svg11.dtd">
<svg xmlns="http://www.w3.org/2000/svg" xmlns:xlink="http://www.w3.org/1999/xlink" version="1.1" width="114" height="123" viewBox="0 0 114 123" xml:space="preserve">
<desc>Created with Fabric.js 3.6.6</desc>
<defs>
</defs>
<g transform="matrix(1 0 0 1 57.39 61.94)" id="Layer_1"  >
<path style="stroke: none; stroke-width: 1; stroke-dasharray: none; stroke-linecap: butt; stroke-dashoffset: 0; stroke-linejoin: miter; stroke-miterlimit: 4; fill: rgb(255,255,255); fill-rule: evenodd; opacity: 1;"  transform=" translate(-56.89, -61.44)" d="M 65.59 67.32 h 38.82 a 9.41 9.41 0 0 1 9.38 9.38 v 36.79 a 9.41 9.41 0 0 1 -9.38 9.39 H 65.59 a 9.41 9.41 0 0 1 -9.38 -9.39 V 76.7 a 9.41 9.41 0 0 1 9.38 -9.38 Z M 60 11.56 L 79.73 30.07 H 60 V 11.56 Z M 20.89 70 a 2.14 2.14 0 0 0 -2 2.23 a 2.1 2.1 0 0 0 2 2.22 H 45.67 V 70 Z m 0 16 a 2.14 2.14 0 0 0 -2 2.23 a 2.1 2.1 0 0 0 2 2.23 H 45.67 V 85.91 Z m 0 -47.89 a 2.14 2.14 0 0 0 -2 2.23 a 2.11 2.11 0 0 0 2 2.23 H 43.81 a 2.14 2.14 0 0 0 2 -2.23 a 2.11 2.11 0 0 0 -2 -2.23 Z m 0 -16 a 2.14 2.14 0 0 0 -2 2.23 a 2.1 2.1 0 0 0 2 2.23 h 12.6 a 2.14 2.14 0 0 0 2 -2.23 a 2.11 2.11 0 0 0 -2 -2.23 Z m 0 31.93 a 2.14 2.14 0 0 0 -2 2.23 a 2.12 2.12 0 0 0 2 2.23 H 59.65 a 2.14 2.14 0 0 0 2 -2.23 a 2.1 2.1 0 0 0 -2 -2.23 Z M 90.72 32.72 a 3.28 3.28 0 0 0 -2.39 -3.17 L 59.23 1.21 A 3.27 3.27 0 0 0 56.69 0 H 5.91 A 5.91 5.91 0 0 0 0 5.91 V 107.12 A 5.91 5.91 0 0 0 5.91 113 H 45.76 v -6.6 H 6.61 V 6.57 H 53.37 V 33.36 a 3.32 3.32 0 0 0 3.32 3.31 H 84.12 V 58.29 h 6.6 V 32.72 Z m 6.45 60.62 a 2.4 2.4 0 0 1 2.06 1 c 1.08 1.62 -0.4 3.22 -1.42 4.35 c -2.91 3.19 -9.49 9 -10.92 10.66 a 2.37 2.37 0 0 1 -3.72 0 c -1.49 -1.73 -8.43 -7.86 -11.19 -11 c -1 -1.08 -2.15 -2.56 -1.15 -4 a 2.42 2.42 0 0 1 2.07 -1 h 5.17 V 84.07 A 2.92 2.92 0 0 1 81 81.15 H 89.1 A 2.92 2.92 0 0 1 92 84.07 v 9.27 Z" stroke-linecap="round" />
</g>
</svg>