<?xml version="1.0" encoding="UTF-8" standalone="no" ?>
<!DOCTYPE svg PUBLIC "-//W3C//DTD SVG 1.1//EN" "http://www.w3.org/Graphics/SVG/1.1/DTD/svg11.dtd">
<svg xmlns="http://www.w3.org/2000/svg" xmlns:xlink="http://www.w3.org/1999/xlink" version="1.1" width="130" height="130" viewBox="0 0 130 130" xml:space="preserve">
<desc>Created with Fabric.js 3.6.6</desc>
<defs>
</defs>
<g transform="matrix(1 0 0 1 65.97 63.94)"  >
<path style="stroke: none; stroke-width: 1; stroke-dasharray: none; stroke-linecap: butt; stroke-dashoffset: 0; stroke-linejoin: miter; stroke-miterlimit: 4; fill: rgb(255,255,255); fill-rule: nonzero; opacity: 1;"  transform=" translate(-61.46, -61.44)" d="M 60.54 34.07 A 7.65 7.65 0 0 1 49.72 23.25 l 13 -12.95 a 35.38 35.38 0 0 1 49.91 0 l 0.07 0.08 a 35.37 35.37 0 0 1 -0.07 49.83 l -13 12.95 A 7.65 7.65 0 0 1 88.81 62.34 l 13 -13 a 20.08 20.08 0 0 0 0 -28.23 l -0.11 -0.11 a 20.08 20.08 0 0 0 -28.2 0.07 l -12.95 13 Z m 14 3.16 A 7.65 7.65 0 0 1 85.31 48.05 L 48.05 85.31 A 7.65 7.65 0 0 1 37.23 74.5 L 74.5 37.23 Z M 62.1 89.05 A 7.65 7.65 0 0 1 72.91 99.87 l -12.7 12.71 a 35.37 35.37 0 0 1 -49.76 0.14 l -0.28 -0.27 a 35.38 35.38 0 0 1 0.13 -49.78 L 23 50 A 7.65 7.65 0 1 1 33.83 60.78 L 21.12 73.49 a 20.09 20.09 0 0 0 0 28.25 l 0 0 a 20.07 20.07 0 0 0 28.27 0 L 62.1 89.05 Z" stroke-linecap="round" />
</g>
<g transform="matrix(1 0 0 1 36 91)"  >
<line style="stroke: rgb(0,0,0); stroke-width: 2; stroke-dasharray: none; stroke-linecap: butt; stroke-dashoffset: 0; stroke-linejoin: miter; stroke-miterlimit: 4; fill: rgb(0,0,0); fill-rule: nonzero; opacity: 1;"  x1="0" y1="0" x2="0" y2="0" />
</g>
<g transform="matrix(1 0 0 1 83 114)"  >
<line style="stroke: rgb(0,0,0); stroke-width: 2; stroke-dasharray: none; stroke-linecap: butt; stroke-dashoffset: 0; stroke-linejoin: miter; stroke-miterlimit: 4; fill: rgb(0,0,0); fill-rule: nonzero; opacity: 1;" vector-effect="non-scaling-stroke"  x1="0" y1="0" x2="0" y2="0" />
</g>
</svg>