<?xml version="1.0" encoding="UTF-8" standalone="no"?>
<svg
   xmlns:dc="http://purl.org/dc/elements/1.1/"
   xmlns:cc="http://creativecommons.org/ns#"
   xmlns:rdf="http://www.w3.org/1999/02/22-rdf-syntax-ns#"
   xmlns:svg="http://www.w3.org/2000/svg"
   xmlns="http://www.w3.org/2000/svg"
   xmlns:sodipodi="http://sodipodi.sourceforge.net/DTD/sodipodi-0.dtd"
   xmlns:inkscape="http://www.inkscape.org/namespaces/inkscape"
   viewBox="0 0 2048 2048"
   width="32"
   height="32"
   version="1.1"
   id="svg4"
   sodipodi:docname="inspector.svg"
   inkscape:version="0.92.3 (2405546, 2018-03-11)">
  <metadata
     id="metadata10">
    <rdf:RDF>
      <cc:Work
         rdf:about="">
        <dc:format>image/svg+xml</dc:format>
        <dc:type
           rdf:resource="http://purl.org/dc/dcmitype/StillImage" />
      </cc:Work>
    </rdf:RDF>
  </metadata>
  <defs
     id="defs8" />
  <sodipodi:namedview
     pagecolor="#ffffff"
     bordercolor="#666666"
     borderopacity="1"
     objecttolerance="10"
     gridtolerance="10"
     guidetolerance="10"
     inkscape:pageopacity="0"
     inkscape:pageshadow="2"
     inkscape:window-width="3840"
     inkscape:window-height="2019"
     id="namedview6"
     showgrid="false"
     inkscape:zoom="20.85965"
     inkscape:cx="22.119407"
     inkscape:cy="27.657307"
     inkscape:window-x="3827"
     inkscape:window-y="-13"
     inkscape:window-maximized="1"
     inkscape:current-layer="svg4" />
  <path
     fill="white"
     d="M1920 128v1792H128V128h1792zM256 256v1024h150l109-109q19-19 45-19t45 19l177 176 244-947q5-21 22-34t40-14q23 0 40 13t22 36l102 417h156q22 0 39 13t23 35l72 286h250V256H256zm1536 1536v-512h-300q-23 0-40-13t-22-36l-72-285h-156q-23 0-40-13t-22-36l-54-218-208 809q-5 21-22 34t-40 14q-26 0-45-19l-211-211-83 83q-19 19-45 19H256v384h1536z"
     id="path2"
     style="fill:#000000;fill-opacity:1" />
</svg>
