<?xml version="1.0" encoding="UTF-8" standalone="no"?>
<svg
   xmlns:dc="http://purl.org/dc/elements/1.1/"
   xmlns:cc="http://creativecommons.org/ns#"
   xmlns:rdf="http://www.w3.org/1999/02/22-rdf-syntax-ns#"
   xmlns:svg="http://www.w3.org/2000/svg"
   xmlns="http://www.w3.org/2000/svg"
   xmlns:sodipodi="http://sodipodi.sourceforge.net/DTD/sodipodi-0.dtd"
   xmlns:inkscape="http://www.inkscape.org/namespaces/inkscape"
   viewBox="0 0 2048 2048"
   width="32"
   height="32"
   version="1.1"
   id="svg4"
   sodipodi:docname="newfolder.svg"
   inkscape:version="0.92.3 (2405546, 2018-03-11)">
  <metadata
     id="metadata10">
    <rdf:RDF>
      <cc:Work
         rdf:about="">
        <dc:format>image/svg+xml</dc:format>
        <dc:type
           rdf:resource="http://purl.org/dc/dcmitype/StillImage" />
      </cc:Work>
    </rdf:RDF>
  </metadata>
  <defs
     id="defs8" />
  <sodipodi:namedview
     pagecolor="#ffffff"
     bordercolor="#666666"
     borderopacity="1"
     objecttolerance="10"
     gridtolerance="10"
     guidetolerance="10"
     inkscape:pageopacity="0"
     inkscape:pageshadow="2"
     inkscape:window-width="3840"
     inkscape:window-height="2019"
     id="namedview6"
     showgrid="false"
     inkscape:zoom="29.5"
     inkscape:cx="41.005268"
     inkscape:cy="30.032269"
     inkscape:window-x="3827"
     inkscape:window-y="-13"
     inkscape:window-maximized="1"
     inkscape:current-layer="svg4" />
  <path
     fill="white"
     d="M2048 512v896h-128V512h-704q-56 0-90 9t-58 24-41 31-37 31-50 23-76 10H128v896h896v128H128q-27 0-50-10t-40-27-28-41-10-50V256q0-27 10-50t27-40 41-28 50-10h736q37 0 69 13t58 36 49 51 39 59q13 23 25 41t28 30 35 19 49 7h704q27 0 50 10t40 27 28 41 10 50zm-1184 0q27 0 45-9t35-22 34-28 39-28q-15-17-31-45t-36-56-40-48-46-20H128v256h736zm800 640v384h384v128h-384v384h-128v-384h-384v-128h384v-384h128z"
     id="path2"
     style="fill:#000000;fill-opacity:1" />
</svg>
