<?xml version="1.0" encoding="UTF-8" standalone="no"?>
<svg
   xmlns:dc="http://purl.org/dc/elements/1.1/"
   xmlns:cc="http://creativecommons.org/ns#"
   xmlns:rdf="http://www.w3.org/1999/02/22-rdf-syntax-ns#"
   xmlns:svg="http://www.w3.org/2000/svg"
   xmlns="http://www.w3.org/2000/svg"
   xmlns:sodipodi="http://sodipodi.sourceforge.net/DTD/sodipodi-0.dtd"
   xmlns:inkscape="http://www.inkscape.org/namespaces/inkscape"
   viewBox="0 0 2048 2048"
   width="32"
   height="32"
   version="1.1"
   id="svg4"
   sodipodi:docname="upload.svg"
   inkscape:version="0.92.3 (2405546, 2018-03-11)">
  <metadata
     id="metadata10">
    <rdf:RDF>
      <cc:Work
         rdf:about="">
        <dc:format>image/svg+xml</dc:format>
        <dc:type
           rdf:resource="http://purl.org/dc/dcmitype/StillImage" />
      </cc:Work>
    </rdf:RDF>
  </metadata>
  <defs
     id="defs8" />
  <sodipodi:namedview
     pagecolor="#ffffff"
     bordercolor="#666666"
     borderopacity="1"
     objecttolerance="10"
     gridtolerance="10"
     guidetolerance="10"
     inkscape:pageopacity="0"
     inkscape:pageshadow="2"
     inkscape:window-width="3840"
     inkscape:window-height="2019"
     id="namedview6"
     showgrid="false"
     inkscape:zoom="7.375"
     inkscape:cx="-4.1355932"
     inkscape:cy="16"
     inkscape:window-x="3827"
     inkscape:window-y="-13"
     inkscape:window-maximized="1"
     inkscape:current-layer="svg4" />
  <path
     fill="white"
     d="M1629 769q88 6 164 43t133 97 89 140 33 167q0 93-35 174t-96 142-142 96-175 36h-320v-128h320q66 0 124-25t102-68 69-102 25-125q0-66-25-124t-68-102-102-69-125-25q-18 0-35 2t-35 6q-10-84-49-155t-98-124-135-83-160-30q-70 0-135 21t-119 59-97 91-67 120q-75-35-158-35-80 0-149 30t-122 82-83 123-30 149q0 80 30 149t82 122 122 83 150 30h384v128H512q-106 0-199-40t-162-110-110-163-41-199q0-106 40-199t110-162 163-110 199-41q46 0 93 9 40-61 93-110t115-83 132-53 143-19q91 0 175 28t156 78 126 122 84 157zm-330 620l-147-146v677h-128v-677l-147 146-90-90 301-301 301 301-90 90z"
     id="path2"
     style="fill:#171717;fill-opacity:1" />
</svg>
